<svg width="28" height="28" viewBox="0 0 28 28" fill="none" xmlns="http://www.w3.org/2000/svg">
    <path d="M25.328 23.6717L20.9996 19.3783C22.6798 17.2835 23.4934 14.6245 23.2733 11.9482C23.0531 9.27186 21.8159 6.78159 19.8161 4.98943C17.8162 3.19727 15.2058 2.23944 12.5214 2.31289C9.83702 2.38635 7.28282 3.4855 5.38398 5.38434C3.48513 7.28319 2.38598 9.83739 2.31253 12.5218C2.23907 15.2061 3.1969 17.8166 4.98906 19.8165C6.78122 21.8163 9.2715 23.0535 11.9478 23.2736C14.6242 23.4938 17.2831 22.6801 19.378 21L23.6713 25.2933C23.7798 25.4027 23.9088 25.4895 24.051 25.5487C24.1931 25.6079 24.3456 25.6384 24.4996 25.6384C24.6537 25.6384 24.8061 25.6079 24.9483 25.5487C25.0905 25.4895 25.2195 25.4027 25.328 25.2933C25.5383 25.0758 25.6558 24.7851 25.6558 24.4825C25.6558 24.1799 25.5383 23.8892 25.328 23.6717ZM12.833 21C11.2178 21 9.63882 20.521 8.29582 19.6237C6.95282 18.7263 5.90608 17.4509 5.28796 15.9586C4.66985 14.4663 4.50812 12.8243 4.82323 11.2401C5.13834 9.65593 5.91614 8.20077 7.05827 7.05864C8.2004 5.91651 9.65556 5.13871 11.2397 4.8236C12.8239 4.50848 14.466 4.67021 15.9582 5.28833C17.4505 5.90644 18.7259 6.95319 19.6233 8.29619C20.5207 9.63919 20.9996 11.2181 20.9996 12.8333C20.9996 14.9993 20.1392 17.0765 18.6077 18.608C17.0761 20.1396 14.9989 21 12.833 21Z"
          fill="#828282"/>
</svg>
