<svg width="28" height="28" viewBox="0 0 28 28" fill="none" xmlns="http://www.w3.org/2000/svg">
    <path d="M18.3286 14.8283C19.4724 13.9284 20.3072 12.6944 20.717 11.2979C21.1268 9.90147 21.0911 8.41199 20.615 7.03673C20.1388 5.66146 19.2459 4.4688 18.0603 3.62468C16.8748 2.78055 15.4556 2.32693 14.0002 2.32693C12.5449 2.32693 11.1257 2.78055 9.94016 3.62468C8.75461 4.4688 7.86164 5.66146 7.38549 7.03673C6.90933 8.41199 6.87367 9.90147 7.28346 11.2979C7.69325 12.6944 8.52812 13.9284 9.67191 14.8283C7.712 15.6136 6.00191 16.9159 4.72395 18.5966C3.44599 20.2772 2.64806 22.2732 2.41524 24.3717C2.39839 24.5249 2.41188 24.6799 2.45494 24.8279C2.498 24.9759 2.56979 25.114 2.6662 25.2342C2.86093 25.4771 3.14415 25.6326 3.45357 25.6667C3.76299 25.7007 4.07326 25.6104 4.31612 25.4157C4.55898 25.221 4.71454 24.9378 4.74857 24.6283C5.00476 22.3477 6.09221 20.2415 7.80316 18.7119C9.51412 17.1824 11.7286 16.3369 14.0236 16.3369C16.3185 16.3369 18.533 17.1824 20.244 18.7119C21.9549 20.2415 23.0424 22.3477 23.2986 24.6283C23.3303 24.915 23.4671 25.1798 23.6825 25.3715C23.898 25.5633 24.1768 25.6684 24.4652 25.6667H24.5936C24.8994 25.6315 25.1789 25.4769 25.3712 25.2365C25.5635 24.9961 25.653 24.6894 25.6202 24.3833C25.3863 22.2789 24.5841 20.2778 23.2996 18.5946C22.015 16.9113 20.2966 15.6094 18.3286 14.8283ZM14.0002 14C13.0773 14 12.175 13.7263 11.4076 13.2135C10.6402 12.7008 10.042 11.9719 9.6888 11.1192C9.33559 10.2665 9.24318 9.32817 9.42324 8.42293C9.60331 7.51768 10.0478 6.68616 10.7004 6.03351C11.3531 5.38087 12.1846 4.93641 13.0898 4.75635C13.9951 4.57628 14.9334 4.6687 15.7861 5.02191C16.6388 5.37512 17.3677 5.97326 17.8804 6.74069C18.3932 7.50812 18.6669 8.41037 18.6669 9.33335C18.6669 10.571 18.1752 11.758 17.3001 12.6332C16.4249 13.5083 15.2379 14 14.0002 14Z"
          fill="currentColor
"/>
</svg>
